<?xml version="1.0" standalone="no"?>
<!DOCTYPE svg PUBLIC "-//W3C//DTD SVG 20010904//EN"
 "http://www.w3.org/TR/2001/REC-SVG-20010904/DTD/svg10.dtd">
<svg version="1.0" xmlns="http://www.w3.org/2000/svg"
 width="920.000000pt" height="535.000000pt" viewBox="0 0 920.000000 535.000000"
 preserveAspectRatio="xMidYMid meet">

<g transform="translate(0.000000,535.000000) scale(0.100000,-0.100000)"
fill="#000000" stroke="none">
<path d="M6397 5052 c-35 -36 -36 -86 -2 -135 22 -33 55 -115 55 -136 0 -5
-23 2 -52 16 -45 21 -63 24 -127 21 -62 -3 -83 -8 -117 -31 -49 -33 -84 -92
-84 -140 0 -26 -5 -37 -19 -42 -29 -9 -54 -71 -48 -116 13 -101 89 -171 196
-182 103 -11 146 -26 190 -67 23 -21 41 -47 42 -57 1 -38 7 -84 19 -145 10
-55 9 -70 -7 -118 -25 -77 -56 -91 -183 -88 l-95 3 -6 70 c-6 76 -36 153 -94
241 -35 52 -97 114 -115 114 -6 0 -36 17 -68 38 -79 53 -174 89 -310 116
l-115 22 -3 35 c-4 40 -31 115 -50 138 -7 9 -24 30 -39 48 -29 36 -170 133
-230 158 -22 10 -53 25 -70 34 -37 20 -270 28 -369 13 -74 -12 -205 -74 -272
-128 -23 -19 -49 -34 -59 -34 -9 0 -48 16 -85 36 -38 19 -79 37 -92 38 -12 2
-50 10 -83 19 -100 26 -266 32 -369 13 l-89 -17 -98 -92 c-55 -51 -106 -107
-114 -124 -24 -49 -55 -181 -55 -230 0 -38 -3 -43 -22 -43 -36 0 -157 -45
-228 -83 -36 -20 -103 -72 -149 -117 -46 -44 -88 -80 -93 -80 -13 0 -377 -182
-424 -212 -82 -52 -134 -141 -134 -228 0 -47 46 -132 81 -151 23 -12 52 -66
45 -84 -10 -27 26 -90 71 -124 40 -31 44 -38 39 -65 -3 -17 -9 -95 -12 -173
-9 -190 6 -250 86 -333 22 -23 40 -46 40 -51 0 -5 6 -9 13 -9 7 0 42 -15 77
-34 76 -39 124 -51 277 -67 179 -18 225 -12 316 44 42 27 80 48 84 49 15 1 88
41 95 52 12 18 16 -13 21 -154 7 -185 -1 -288 -22 -295 -9 -3 -31 -19 -48 -35
-32 -30 -33 -34 -33 -111 0 -63 4 -87 19 -107 10 -15 21 -50 25 -77 l6 -51
-47 -22 c-119 -54 -133 -73 -133 -181 0 -74 2 -83 82 -301 11 -30 29 -75 40
-99 10 -24 17 -45 15 -48 -3 -2 -65 -8 -138 -13 -74 -6 -152 -14 -174 -19 -80
-18 -156 -60 -211 -119 -60 -64 -84 -122 -84 -208 0 -57 19 -154 30 -154 4 0
10 -25 14 -56 3 -31 15 -75 26 -99 19 -42 120 -145 143 -145 7 -1 30 -9 52
-20 22 -11 62 -19 88 -20 26 0 64 -7 85 -16 64 -28 248 -20 432 20 14 3 59 13
100 22 41 8 93 21 115 27 22 6 49 12 59 14 11 2 48 10 82 18 54 12 122 21 241
29 62 4 66 15 60 166 -5 129 -20 234 -37 255 -5 6 -18 37 -31 70 -12 33 -25
65 -30 70 -4 6 -17 37 -29 70 -12 33 -29 75 -37 93 -8 19 -23 75 -34 125 -30
146 -83 313 -115 362 -10 16 -19 57 -23 108 l-6 81 -42 9 c-41 8 -42 9 -31 35
6 15 11 72 12 127 1 117 -6 131 -91 184 -29 19 -53 39 -53 45 0 6 -5 51 -10
101 -6 49 -8 102 -5 117 6 27 7 27 38 14 18 -7 65 -21 105 -31 88 -21 261 -17
309 9 32 16 83 75 127 144 15 24 33 45 40 48 7 3 55 -20 107 -50 60 -36 144
-72 234 -102 131 -44 148 -47 260 -50 136 -4 132 0 120 -90 -5 -39 -11 -55
-25 -59 -17 -6 -53 -33 -97 -77 -13 -13 -26 -38 -29 -57 -10 -50 4 -181 21
-207 21 -33 20 -34 -30 -34 -54 0 -65 -16 -58 -82 4 -38 0 -58 -20 -100 -14
-29 -31 -73 -37 -98 -7 -25 -15 -49 -20 -55 -7 -10 -38 -110 -46 -150 -17 -88
-36 -160 -58 -214 -14 -36 -26 -68 -26 -73 0 -4 -16 -42 -35 -84 -19 -41 -35
-81 -35 -88 0 -6 -6 -20 -14 -31 -24 -36 -36 -123 -36 -270 0 -128 2 -144 18
-149 9 -3 67 -10 127 -16 122 -10 261 -37 375 -70 41 -12 113 -28 160 -36 47
-7 110 -18 140 -24 67 -13 256 -11 290 2 14 6 43 12 65 14 49 4 67 8 80 16 6
3 29 11 52 17 69 19 136 103 161 203 6 23 20 83 32 132 39 155 20 240 -79 348
-36 40 -66 61 -108 78 -77 30 -183 50 -264 50 -37 0 -81 3 -98 6 -27 6 -30 9
-24 33 3 14 16 44 28 67 21 38 29 61 41 128 3 16 9 37 14 46 31 57 42 118 37
193 -3 43 -11 87 -19 97 -7 11 -42 35 -78 54 l-65 35 2 50 c1 28 9 64 18 80 9
19 15 57 15 103 0 84 -20 127 -68 149 -28 12 -30 15 -36 98 -3 47 -4 95 -2
106 3 11 5 52 5 92 l1 72 68 -28 c68 -30 146 -42 279 -45 88 -3 139 16 172 63
29 40 63 57 130 64 30 3 59 11 64 16 6 6 19 11 28 11 35 0 128 82 169 150 51
84 59 111 53 186 -11 162 -73 339 -154 443 -11 13 -19 27 -19 30 0 4 21 8 46
10 26 1 70 7 98 12 28 6 69 12 91 14 47 4 70 9 108 24 15 6 27 8 27 5 0 -2 13
2 29 10 49 26 85 73 108 143 21 61 23 85 23 273 0 185 2 215 24 300 14 52 41
136 62 185 35 84 38 99 42 211 5 159 -10 258 -47 304 -65 82 -139 103 -186 53
-14 -16 -28 -36 -31 -46 -5 -15 -9 -13 -28 15 -28 43 -60 58 -122 58 -42 0
-55 -4 -77 -28z m140 -64 c28 -30 52 -115 60 -208 3 -41 10 -83 15 -92 13 -27
52 -22 88 12 31 29 32 31 27 102 -4 66 -10 100 -32 181 -7 25 -5 27 22 27 28
0 57 -22 78 -59 8 -13 17 -82 31 -243 6 -62 4 -74 -36 -174 -82 -211 -81 -206
-90 -464 -10 -314 -27 -367 -132 -421 -60 -31 -205 -55 -383 -64 -57 -3 -62
-1 -104 36 l-44 39 20 23 c11 12 28 37 37 55 l17 32 133 0 c158 0 184 4 221
36 45 39 57 126 41 321 -6 87 -21 118 -81 171 -60 53 -101 71 -177 78 -85 9
-145 39 -169 86 -25 49 -24 66 5 79 20 10 31 8 60 -11 20 -12 36 -26 36 -30 0
-15 85 -60 113 -60 30 0 83 41 93 73 4 12 7 40 7 61 0 32 -7 46 -32 68 -41 37
-63 35 -122 -7 -52 -37 -77 -43 -97 -23 -46 46 53 148 143 148 34 0 176 -63
183 -82 6 -15 43 -8 49 9 4 9 2 58 -4 109 -8 81 -13 97 -37 120 -28 29 -42 66
-31 83 12 20 70 12 92 -11z m-1454 -221 c42 -20 80 -37 83 -37 10 0 106 -74
141 -109 50 -49 75 -106 80 -181 6 -91 6 -91 42 -77 23 8 42 8 78 -1 26 -7 66
-14 88 -18 85 -11 178 -51 316 -133 91 -55 189 -226 189 -332 0 -47 -48 -158
-84 -194 -25 -25 -35 -55 -18 -55 4 0 25 -17 47 -38 22 -20 54 -49 72 -63 69
-56 139 -167 176 -279 54 -164 59 -232 21 -307 -71 -140 -155 -190 -347 -208
-76 -7 -91 -17 -66 -42 19 -19 4 -38 -45 -61 -84 -40 -240 -19 -378 50 -48 23
-87 48 -88 53 0 6 7 23 15 39 21 41 20 76 -4 76 -22 0 -48 -36 -55 -77 -3 -15
-20 -48 -38 -73 -17 -25 -44 -63 -59 -85 -69 -100 -125 -130 -232 -123 -65 5
-109 16 -257 65 -25 8 -56 17 -70 20 -14 4 -36 14 -50 23 -14 9 -52 32 -84 51
-40 23 -67 48 -85 77 -14 23 -33 42 -41 42 -8 0 -37 -35 -63 -78 -109 -172
-144 -202 -258 -210 -133 -9 -327 67 -470 185 -88 72 -112 77 -161 34 -18 -15
-50 -34 -70 -40 -20 -7 -42 -19 -50 -28 -7 -9 -26 -22 -43 -30 -16 -7 -43 -22
-60 -33 -34 -21 -99 -25 -172 -10 -26 5 -86 11 -133 13 -106 5 -174 35 -253
112 -78 76 -91 121 -84 307 5 153 20 216 63 274 13 17 24 34 24 38 0 10 91
119 109 130 7 4 49 42 93 82 83 76 122 102 173 113 49 11 37 35 -20 42 -58 7
-130 40 -139 64 -3 9 -6 53 -6 97 0 80 1 82 41 135 54 70 144 152 205 188 54
32 198 85 229 85 12 0 26 -5 32 -11 7 -7 19 -9 28 -5 13 5 16 13 11 39 -17 82
-17 100 -1 154 39 132 54 157 137 233 73 66 84 73 156 91 62 16 97 19 177 14
55 -4 111 -10 125 -14 14 -5 50 -14 80 -21 30 -7 82 -26 115 -41 72 -33 91
-58 135 -179 12 -36 26 -69 30 -73 4 -5 3 -29 -1 -55 -11 -53 2 -76 27 -50 23
23 24 126 1 158 -9 13 -17 30 -17 38 0 7 -9 31 -20 54 l-19 41 26 21 c69 56
126 96 134 96 5 0 22 8 36 17 72 48 146 62 303 59 122 -2 127 -3 203 -39z
m1247 -217 c0 -36 -30 -56 -60 -40 -26 14 -25 27 3 51 34 29 57 25 57 -11z
m-3456 -612 c-4 -13 -6 -43 -5 -68 1 -35 -2 -47 -17 -55 -22 -12 -153 -96
-223 -142 -27 -18 -53 -33 -58 -33 -5 0 -20 -13 -34 -30 -21 -24 -24 -35 -17
-64 9 -39 41 -85 73 -103 12 -7 48 -12 80 -13 31 0 57 -4 57 -9 0 -4 -11 -23
-25 -42 -13 -19 -36 -55 -50 -81 -14 -27 -32 -48 -41 -48 -42 0 -94 63 -94
114 0 40 -30 94 -56 100 -33 9 -78 98 -70 138 19 96 82 148 306 252 42 19 96
51 120 70 52 42 64 45 54 14z m3 -255 c16 -16 38 -33 48 -40 19 -12 18 -14
-20 -45 -21 -18 -57 -50 -79 -70 l-40 -37 -85 4 c-56 2 -87 8 -92 17 -21 33
-16 38 149 134 45 26 82 51 82 56 0 13 7 9 37 -19z m2500 -1255 c0 -254 -1
-263 -21 -283 -25 -24 -114 -41 -130 -25 -11 11 -11 44 6 250 10 132 13 148
37 176 14 18 44 57 65 88 22 31 40 56 41 56 1 0 2 -118 2 -262z m-1659 116
l39 -19 7 -150 c12 -279 12 -324 -2 -330 -31 -12 -129 19 -136 44 -2 9 -4 129
-4 268 l1 252 28 -23 c15 -13 46 -32 67 -42z m1459 -361 c-3 -16 -8 -38 -12
-50 -5 -15 -1 -27 14 -42 30 -30 133 -29 196 1 44 22 45 23 45 70 0 26 3 48 6
48 20 0 54 -54 54 -86 0 -33 -4 -37 -53 -59 -75 -35 -144 -46 -209 -35 -70 12
-123 26 -137 34 -17 11 -2 79 22 95 11 8 28 23 36 32 25 28 44 23 38 -8z
m-1597 -91 c0 -47 1 -48 45 -70 52 -25 160 -31 187 -9 21 16 32 53 18 62 -11
7 -14 65 -2 65 4 0 24 -15 45 -33 30 -25 40 -41 44 -74 5 -36 3 -43 -11 -43
-9 0 -36 -10 -59 -22 -33 -18 -59 -22 -122 -22 -69 0 -89 4 -140 30 l-60 30 0
52 c1 39 6 55 20 67 31 23 35 19 35 -33z m1551 -88 c63 -24 211 -24 267 -1 54
22 52 22 43 -10 -10 -38 -64 -56 -162 -55 -88 1 -191 35 -197 65 -4 21 -5 21
49 1z m-1469 -88 c73 -18 146 -14 207 10 42 18 41 18 41 -5 0 -11 -11 -23 -27
-29 -115 -42 -127 -44 -183 -39 -90 10 -133 31 -146 72 l-11 34 26 -13 c14 -8
56 -21 93 -30z m1763 -85 l-8 -91 -113 0 c-171 0 -201 18 -196 116 4 62 5 65
25 59 12 -4 74 -9 138 -11 88 -3 120 -1 135 10 10 8 20 13 22 11 2 -2 0 -44
-3 -94z m-1701 -15 c47 -1 71 3 73 12 3 6 14 12 24 12 11 0 29 5 40 10 18 10
19 7 19 -42 0 -29 3 -62 6 -73 4 -15 -3 -25 -28 -40 -27 -16 -57 -21 -161 -25
l-127 -5 0 98 0 97 43 -21 c30 -16 61 -23 111 -23z m1472 -241 c25 1 31 -2 26
-14 -5 -14 -4 -14 12 -2 15 12 17 12 14 0 -2 -8 3 -13 12 -11 8 2 12 0 8 -4
-4 -4 -2 -14 5 -22 8 -11 8 -14 0 -9 -6 4 -14 3 -18 -3 -3 -6 4 -11 17 -11 18
-1 19 -2 4 -6 -24 -6 -46 14 -27 26 9 6 10 11 2 15 -6 4 -11 1 -11 -6 0 -7 -9
0 -20 17 -16 25 -19 26 -17 8 0 -12 4 -20 8 -17 7 4 25 -34 22 -46 -1 -3 8 -7
19 -7 12 -1 25 -6 30 -11 6 -6 -1 -8 -19 -6 -15 2 -20 1 -10 -2 16 -5 23 -32
19 -77 -1 -11 2 -15 9 -11 8 4 8 1 1 -12 -5 -11 -8 -27 -7 -36 2 -11 -3 -18
-11 -18 -10 0 -12 5 -7 13 12 20 14 47 2 47 -8 0 -8 4 0 14 9 11 9 20 2 34 -6
11 -8 21 -6 24 3 3 -1 5 -9 5 -13 0 -13 -3 0 -21 16 -23 19 -40 5 -32 -8 5 -8
-22 -1 -31 7 -9 5 -30 -4 -41 -7 -9 -4 -14 11 -18 16 -4 20 -13 19 -34 -2 -25
0 -27 13 -17 12 10 13 9 3 -9 -14 -26 -10 -48 11 -72 9 -10 15 -22 12 -25 -3
-4 1 -3 7 3 9 7 7 14 -8 25 -10 8 -15 15 -10 15 5 0 3 7 -4 15 -10 13 -11 18
-1 28 10 9 11 8 5 -7 -5 -13 -4 -17 3 -13 7 4 10 0 9 -10 -2 -9 5 -24 15 -34
19 -19 15 -54 -5 -42 -7 4 -7 1 1 -9 7 -8 9 -19 5 -24 -4 -4 1 -2 11 5 19 15
23 26 5 15 -7 -4 -8 -3 -4 5 12 19 27 2 16 -19 -7 -13 -7 -21 0 -25 6 -4 8
-11 5 -16 -4 -5 2 -6 12 -2 16 6 17 5 3 -12 -15 -18 -14 -18 13 -1 24 17 32
15 28 -6 0 -5 4 -8 10 -8 5 0 7 -5 4 -11 -5 -6 -11 -4 -19 7 -10 13 -15 14
-21 4 -5 -8 -4 -11 2 -7 6 4 14 0 17 -8 3 -8 11 -14 18 -13 7 2 12 -3 13 -9 0
-7 4 -13 9 -12 5 0 13 -5 18 -13 8 -10 9 -10 5 2 -2 8 -10 14 -16 12 -7 -1
-10 2 -6 8 10 17 23 11 31 -12 5 -13 7 -26 6 -29 0 -4 9 -6 21 -5 12 0 22 -4
22 -11 0 -6 3 -15 7 -18 4 -4 5 5 2 21 l-5 29 21 -32 c11 -18 22 -33 25 -33 4
0 4 4 0 9 -3 5 -1 12 5 16 9 6 15 -8 11 -29 -1 -5 4 -4 12 2 11 10 17 9 27 -3
13 -16 30 -11 30 8 0 8 -3 8 -9 -1 -6 -10 -10 -10 -20 2 -10 12 -8 14 18 12
17 -1 39 -10 51 -21 11 -10 20 -15 20 -10 0 4 6 2 13 -4 17 -14 27 -4 20 17
-5 14 -3 14 8 -1 8 -10 23 -20 34 -21 11 -2 19 -9 18 -15 -4 -16 2 -14 18 6
10 11 10 14 2 9 -19 -11 -16 0 5 15 9 7 14 9 10 5 -9 -10 9 -36 24 -36 6 0 4
8 -3 18 -13 15 -12 16 4 3 9 -8 15 -16 13 -18 -3 -3 -1 -15 3 -27 4 -11 4 -32
0 -46 l-7 -25 -2 25 c-1 14 -2 34 -2 45 1 17 0 17 -4 2 -3 -9 -9 -15 -14 -12
-5 3 -7 12 -4 19 3 8 1 17 -5 21 -7 4 -8 0 -4 -11 5 -13 3 -15 -8 -9 -8 5 -7
1 4 -12 9 -11 14 -23 10 -28 -5 -4 -3 -5 3 -2 7 4 13 -4 16 -22 2 -17 2 -30
-1 -29 -22 2 -31 -5 -31 -24 0 -13 -3 -18 -8 -12 -11 16 -41 13 -35 -4 4 -10
8 -10 13 -2 5 8 9 7 13 -4 4 -9 3 -15 -1 -15 -4 1 -10 0 -14 -1 -5 -1 -12 -4
-18 -5 -5 -1 -12 -4 -15 -5 -15 -7 -32 -5 -46 7 -13 11 -16 11 -16 -2 0 -8 5
-11 10 -8 6 3 7 1 3 -6 -4 -6 -11 -9 -16 -6 -5 3 -12 0 -15 -5 -5 -8 -12 -7
-23 2 -14 12 -108 18 -127 8 -20 -10 -53 -3 -68 14 -10 12 -16 16 -13 10 3 -7
-1 -15 -9 -18 -9 -3 -18 1 -22 9 -4 12 -9 13 -18 5 -10 -9 -16 -6 -25 10 -7
14 -15 18 -23 13 -11 -8 -29 -10 -42 -3 -3 1 -9 3 -14 4 -5 0 -12 4 -16 8 -4
3 1 5 12 3 10 -2 18 -4 18 -5 0 -1 8 -3 18 -5 9 -2 15 1 11 6 -3 5 -9 7 -14 4
-5 -3 -11 -1 -14 3 -9 16 -51 8 -48 -8 2 -8 0 -11 -5 -7 -4 5 -8 16 -8 24 0 9
-8 17 -18 19 -9 1 -15 -2 -11 -7 3 -5 10 -6 16 -3 7 4 8 2 4 -5 -6 -8 -12 -9
-20 -2 -7 6 -16 8 -20 4 -4 -4 -10 4 -13 17 -6 22 -7 23 -14 4 -7 -16 -8 -17
-8 -1 -1 9 -6 17 -12 17 -5 0 -8 -4 -5 -9 4 -5 -1 -8 -10 -7 -9 1 -20 10 -25
19 -6 10 -18 14 -35 11 -15 -3 -23 -1 -20 5 3 5 -2 8 -11 6 -10 -1 -22 0 -28
4 -19 10 -45 11 -45 0 0 -5 5 -7 12 -3 7 4 8 3 4 -5 -9 -14 -26 -5 -26 14 0 8
-4 17 -10 20 -5 3 -7 0 -4 -8 3 -8 0 -18 -7 -23 -7 -4 -10 -3 -5 4 3 6 2 13
-4 17 -6 4 -8 11 -4 16 3 5 0 8 -7 7 -7 -2 -13 2 -14 9 0 6 -3 14 -7 17 -5 3
-6 3 -3 -1 3 -3 -1 -13 -8 -21 -9 -12 -9 -14 0 -9 7 5 16 -1 23 -15 10 -20 10
-21 -3 -6 -9 12 -17 14 -25 8 -7 -6 -10 -7 -7 -4 3 4 0 13 -6 21 -6 7 -9 22
-6 33 3 11 1 20 -3 20 -5 0 -10 -8 -12 -17 -3 -15 -5 -14 -10 5 -3 12 -2 20 3
16 5 -3 9 -1 9 5 0 5 -6 12 -12 14 -13 5 17 11 36 8 5 -1 3 5 -4 14 -10 12
-10 21 -1 41 18 40 12 43 -8 4 -14 -26 -16 -37 -8 -43 8 -6 7 -7 -3 -4 -8 2
-13 11 -11 18 2 8 4 22 5 31 0 9 3 15 7 12 5 -3 18 40 19 61 0 3 6 18 14 34 9
16 12 32 8 36 -4 5 -1 5 5 1 10 -6 10 -13 -1 -35 -11 -21 -12 -28 -3 -28 14 0
19 26 16 80 0 17 5 40 14 55 5 6 5 17 1 24 -5 7 -3 8 6 3 10 -6 12 -4 7 7 -3
9 1 24 9 35 14 17 15 17 5 -3 -8 -17 -7 -25 7 -35 14 -11 15 -11 5 0 -14 16
-6 44 11 34 6 -3 0 7 -14 23 -14 15 -17 22 -7 15 20 -15 23 -2 5 18 -8 9 -8
11 -2 8 7 -4 12 2 13 16 1 42 4 56 13 51 4 -3 4 -14 -2 -24 -15 -29 -11 -38 5
-10 12 22 12 28 -1 48 -11 17 -11 22 -2 20 8 -2 13 6 12 19 -1 13 2 20 6 18 9
-6 8 -25 -3 -42 -4 -6 -3 -15 3 -18 6 -4 10 -3 9 2 -1 4 -1 10 1 13 8 22 8 50
0 55 -14 9 -2 25 18 24 14 0 13 -2 -3 -10 l-20 -9 20 3 c15 2 20 10 20 34 -1
17 3 29 8 26 4 -3 6 -11 3 -19 -3 -7 -1 -16 3 -19 5 -3 8 9 7 26 -2 28 -1 29
11 14 7 -10 10 -22 6 -28 -3 -6 -1 -7 5 -3 8 5 8 15 2 32 -6 15 -6 23 -1 19 5
-3 13 -1 16 5 4 6 12 7 18 2 7 -4 26 -8 43 -7z m-1368 -103 c-11 -15 -10 -15
8 1 11 9 25 14 29 10 5 -5 4 -1 -3 8 -9 12 -9 16 2 16 8 0 13 -9 11 -23 -2
-21 15 -27 31 -11 10 9 34 -12 34 -30 0 -8 4 -11 10 -8 6 4 7 -1 3 -11 -5 -13
-3 -15 8 -9 8 4 11 5 7 0 -4 -4 -3 -14 3 -22 6 -7 8 -13 4 -13 -4 0 -3 -6 2
-12 5 -7 9 -20 8 -28 0 -8 4 -19 10 -23 6 -5 4 -7 -5 -4 -8 2 -14 14 -14 26 1
12 -1 19 -4 16 -8 -8 -10 -54 -3 -53 19 2 44 -4 34 -9 -7 -2 -13 -9 -13 -14 0
-6 5 -7 12 -3 6 4 8 3 4 -4 -3 -6 -2 -14 4 -17 8 -5 7 -12 -2 -23 -8 -10 -9
-13 -1 -9 6 4 15 2 19 -4 4 -8 3 -9 -4 -5 -7 4 -12 2 -12 -4 0 -6 -5 -8 -12
-4 -10 6 -10 4 -2 -7 6 -8 14 -21 18 -29 3 -8 4 -5 2 8 -2 12 -1 22 4 22 7 0
20 -43 26 -88 3 -21 1 -22 -14 -10 -12 9 -11 6 3 -14 11 -15 24 -28 29 -28 5
0 3 6 -3 14 -9 11 -9 16 0 22 7 4 9 3 5 -4 -3 -6 -2 -13 3 -16 5 -4 8 -14 6
-24 -1 -9 2 -23 8 -29 5 -7 6 -13 1 -13 -5 0 -2 -5 6 -11 13 -9 13 -10 0 -6
-8 2 -13 11 -12 18 2 8 0 10 -4 6 -4 -4 -9 -15 -10 -23 -1 -9 0 -13 3 -10 9 8
44 -14 38 -24 -3 -5 -1 -11 5 -15 6 -4 8 -10 5 -15 -3 -5 -1 -11 4 -14 5 -3 7
-15 4 -26 -3 -11 -9 -17 -15 -14 -5 3 -4 13 4 22 12 15 11 16 -5 3 -16 -12
-16 -16 -2 -31 8 -9 15 -22 15 -29 0 -7 6 -9 13 -6 6 4 2 -2 -10 -13 -25 -22
-31 -38 -10 -26 6 4 2 -4 -11 -18 -13 -14 -31 -25 -40 -23 -9 1 -25 -4 -34
-13 -10 -8 -18 -12 -18 -7 0 4 -6 2 -14 -4 -11 -9 -16 -9 -22 0 -4 7 -3 9 4 5
6 -3 13 -2 17 4 4 6 11 7 17 4 7 -4 8 -2 4 5 -5 8 -12 9 -19 3 -7 -5 -20 -8
-29 -7 -10 2 -21 -2 -25 -7 -4 -7 -1 -8 7 -3 9 5 11 4 6 -4 -6 -9 -11 -9 -21
-1 -10 8 -15 8 -21 -1 -5 -8 -3 -9 6 -4 9 5 11 4 6 -4 -6 -9 -11 -9 -24 1 -13
11 -15 11 -10 -4 5 -11 2 -15 -10 -13 -9 1 -24 -3 -32 -9 -13 -9 -13 -9 -2 6
13 16 11 16 -17 8 -17 -5 -31 -6 -31 -4 0 3 -6 2 -12 -3 -7 -4 -16 -8 -20 -9
-5 -1 -10 -3 -13 -4 -3 -1 -11 -3 -17 -4 -7 -1 -12 -10 -11 -21 2 -20 1 -20
-14 0 -15 19 -15 19 -10 -5 6 -24 5 -24 -8 -6 -14 19 -21 11 -16 -17 1 -5 -3
-6 -8 -2 -6 3 -8 13 -5 23 4 10 2 13 -3 7 -4 -6 -17 -11 -27 -10 -11 0 -21 -7
-23 -15 -4 -13 -3 -13 7 0 10 13 11 13 7 0 -2 -8 -12 -14 -22 -12 -11 2 -14
-1 -9 -9 4 -8 3 -10 -5 -5 -9 6 -9 11 1 24 11 13 11 14 -2 7 -8 -6 -19 -10
-24 -10 -5 0 -11 -7 -13 -15 -4 -13 -3 -13 6 0 7 9 11 10 11 3 0 -19 -20 -26
-26 -8 -6 14 -8 14 -19 -1 -9 -14 -14 -14 -20 -4 -6 9 -4 11 5 5 9 -5 11 -4 6
4 -4 6 -13 8 -19 4 -7 -4 -18 -8 -26 -10 -8 -1 -18 -8 -22 -15 -5 -7 -9 -8 -9
-2 0 7 -20 10 -52 9 -29 -1 -58 2 -65 7 -7 5 -14 5 -18 -2 -3 -6 -11 -8 -16
-4 -5 3 -16 0 -24 -6 -12 -10 -16 -9 -21 4 -3 9 -10 16 -16 16 -5 0 -6 -5 -2
-12 4 -7 3 -8 -5 -4 -6 4 -9 11 -6 16 3 5 -3 7 -14 5 -11 -2 -25 3 -31 11 -7
7 -16 11 -21 8 -5 -3 -6 2 -2 11 5 14 8 14 15 3 8 -11 9 -10 6 1 -2 8 -12 15
-21 17 -9 1 -15 -2 -12 -6 3 -5 1 -12 -5 -15 -6 -4 -10 -3 -9 2 1 4 0 11 -1
16 -6 19 -5 33 4 39 12 8 18 40 6 33 -5 -3 -10 0 -12 7 -3 7 -7 5 -11 -6 -4
-9 -3 -15 2 -11 5 3 12 1 16 -5 3 -5 0 -10 -9 -10 -8 0 -16 -3 -19 -7 -2 -5
-3 -3 -1 3 1 6 -3 17 -9 24 -9 10 -9 11 2 5 11 -6 13 -4 8 9 -4 9 -3 15 2 12
13 -9 21 20 9 32 -7 7 -5 10 8 8 11 -2 25 4 32 13 11 14 11 14 6 -2 -6 -17 -5
-18 14 -6 11 7 18 17 15 23 -3 5 -1 6 5 2 6 -4 9 -14 6 -24 -3 -9 2 -6 10 8
l16 25 -4 -28 c-3 -16 -1 -25 5 -22 5 4 7 11 4 16 -4 5 -1 9 5 9 6 0 9 4 5 9
-3 5 -1 12 4 15 5 4 8 -5 6 -19 -1 -14 2 -28 7 -31 4 -3 8 -2 7 3 -1 4 -1 17
0 28 1 16 3 17 10 5 6 -8 7 -19 3 -25 -3 -5 1 -4 10 2 8 7 17 10 21 7 3 -3 10
3 16 14 6 11 19 19 28 18 10 -2 22 2 26 8 6 7 7 6 4 -4 -2 -8 -10 -14 -16 -12
-7 1 -10 -2 -6 -8 3 -6 12 -7 18 -3 7 4 16 8 20 8 5 0 15 11 23 25 l14 25 -5
-29 -4 -29 24 23 c14 13 22 26 19 29 -3 3 -9 -1 -14 -9 -6 -9 -10 -10 -10 -3
0 20 20 26 37 11 12 -9 15 -9 9 0 -4 7 -2 12 4 12 6 0 8 5 5 10 -4 6 -1 9 7 8
7 -2 12 2 11 8 -1 6 5 11 13 11 12 0 12 -3 -1 -17 -14 -15 -14 -19 2 -31 16
-13 17 -12 4 4 -12 15 -9 21 11 18 3 0 5 11 3 24 -1 13 1 22 6 20 4 -3 9 -2
12 2 2 5 2 3 1 -4 -2 -7 1 -15 5 -17 5 -3 8 8 7 24 0 17 4 29 9 27 6 -1 9 -10
9 -20 -1 -10 1 -15 5 -12 3 4 5 10 4 13 -1 4 6 15 15 26 9 10 16 20 15 22 -2
2 -3 14 -3 27 0 17 2 19 9 7 6 -8 7 -18 4 -24 -3 -5 -1 -6 5 -2 6 4 8 14 5 24
-6 15 -5 16 13 2 13 -10 15 -10 7 -1 -9 11 -9 20 3 44 9 16 14 38 11 48 -3 11
-1 16 4 13 6 -3 8 6 5 20 -3 15 -1 24 5 21 5 -4 10 6 10 22 1 18 3 22 6 10 3
-10 1 -26 -2 -35 -10 -23 -13 -72 -4 -66 4 2 6 15 4 29 -1 14 2 28 6 31 13 8
11 58 -3 73 -10 11 -10 13 0 7 12 -7 17 6 5 17 -9 10 -11 77 -1 71 10 -6 11
10 1 20 -11 11 -11 56 0 49 6 -3 8 6 5 25 -2 17 -1 29 4 26 12 -8 10 -48 -4
-62 -9 -9 -9 -12 3 -12 12 0 12 -2 -1 -10 -12 -8 -12 -10 -1 -10 8 0 11 -7 9
-18 -3 -11 0 -19 8 -19 7 0 11 3 9 7 -9 15 -15 71 -7 66 5 -3 6 12 2 34 -5 26
-4 37 3 33 6 -4 8 0 4 11 -4 10 -3 15 3 11 5 -3 7 -19 5 -35 -2 -17 0 -28 5
-25 5 3 6 13 3 22 -5 12 -3 14 7 8 9 -5 11 -4 6 3 -4 7 -2 20 4 29 7 13 10 14
8 3 -5 -25 16 -27 27 -2 8 18 11 19 13 7 2 -9 -2 -24 -10 -33z m-17 15 c-10
-9 -11 -8 -5 6 3 10 9 15 12 12 3 -3 0 -11 -7 -18z m86 -9 c-3 -8 -6 -5 -6 6
-1 11 2 17 5 13 3 -3 4 -12 1 -19z m1433 -112 c0 -3 -4 -8 -10 -11 -5 -3 -10
-1 -10 4 0 6 5 11 10 11 6 0 10 -2 10 -4z m-23 -52 c-2 -14 0 -27 4 -30 5 -3
9 -11 9 -17 0 -7 -6 -4 -14 5 -7 10 -17 14 -21 10 -4 -4 -3 2 2 13 6 11 9 28
8 38 -2 9 1 14 7 11 5 -4 8 -17 5 -30z m-1607 -69 c0 -19 -7 -38 -17 -46 -15
-11 -16 -11 -5 1 18 20 15 70 -5 94 -18 21 -18 21 5 2 14 -13 22 -30 22 -51z
m1678 8 c-10 -2 -26 -2 -35 0 -10 3 -2 5 17 5 19 0 27 -2 18 -5z m-4 -165 c-5
-7 -2 -9 8 -6 8 4 15 0 15 -7 0 -10 -5 -11 -19 -4 -16 9 -17 29 -2 29 3 0 2
-5 -2 -12z m133 -60 c-3 -7 -5 -2 -5 12 0 14 2 19 5 13 2 -7 2 -19 0 -25z
m-1890 -18 c-2 -11 -6 -22 -9 -26 -4 -3 -5 2 -3 13 2 10 4 21 4 26 1 4 3 7 6
7 3 0 4 -9 2 -20z m1966 -17 c-7 -2 -19 -2 -25 0 -7 3 -2 5 12 5 14 0 19 -2
13 -5z m50 -10 c-7 -2 -19 -2 -25 0 -7 3 -2 5 12 5 14 0 19 -2 13 -5z m-111
-17 c7 4 8 2 4 -5 -9 -13 -26 -5 -25 12 0 9 2 8 6 -1 2 -6 10 -9 15 -6z
m-2031 -19 c-10 -9 -11 -8 -5 6 3 10 9 15 12 12 3 -3 0 -11 -7 -18z m2250 6
c13 -16 12 -17 -3 -4 -10 7 -18 15 -18 17 0 8 8 3 21 -13z m-164 -25 c-3 -8
-6 -5 -6 6 -1 11 2 17 5 13 3 -3 4 -12 1 -19z m226 5 c-7 -2 -19 -2 -25 0 -7
3 -2 5 12 5 14 0 19 -2 13 -5z m-2366 -9 c-3 -3 -12 -4 -19 -1 -8 3 -5 6 6 6
11 1 17 -2 13 -5z m2291 -29 c-3 -3 -9 2 -12 12 -6 14 -5 15 5 6 7 -7 10 -15
7 -18z m26 -1 c3 -8 2 -12 -4 -9 -6 3 -10 10 -10 16 0 14 7 11 14 -7z m76 -5
c0 -4 -10 -6 -21 -4 -32 6 -34 13 -4 13 14 0 25 -4 25 -9z m-2607 -26 c-7 -2
-21 -2 -30 0 -10 3 -4 5 12 5 17 0 24 -2 18 -5z m174 -15 c-3 -8 -6 -5 -6 6
-1 11 2 17 5 13 3 -3 4 -12 1 -19z m-90 -20 c-3 -8 -6 -5 -6 6 -1 11 2 17 5
13 3 -3 4 -12 1 -19z m1724 -41 c-10 -9 -11 -8 -5 6 3 10 9 15 12 12 3 -3 0
-11 -7 -18z m-1241 -102 c-7 -9 -15 -13 -18 -10 -3 3 -11 0 -18 -6 -8 -7 -14
-6 -20 2 -4 7 -3 9 4 5 6 -3 13 -2 17 4 4 6 10 8 15 5 5 -3 11 -1 15 5 3 5 9
10 12 10 3 0 0 -7 -7 -15z m1800 -21 c0 -8 -19 -13 -24 -6 -3 5 1 9 9 9 8 0
15 -2 15 -3z m11 -17 c-10 -9 -11 -8 -5 6 3 10 9 15 12 12 3 -3 0 -11 -7 -18z
m69 18 c0 -2 -6 -8 -13 -14 -10 -8 -14 -7 -14 2 0 8 6 14 14 14 7 0 13 -1 13
-2z m-2328 -70 c2 3 5 -2 5 -10 0 -13 -4 -12 -20 2 -20 17 -20 17 -13 -2 5
-15 4 -17 -5 -8 -15 15 -2 38 15 24 7 -6 15 -9 18 -6z m153 6 c-9 -8 -36 -10
-30 -2 2 4 11 8 20 8 8 0 13 -3 10 -6z m-85 -6 c0 -2 -6 -8 -13 -14 -10 -8
-14 -7 -14 2 0 8 6 14 14 14 7 0 13 -1 13 -2z"/>
<path d="M4700 4294 c-63 -38 -79 -53 -102 -98 -35 -68 -26 -265 13 -314 8 -9
23 -33 33 -52 52 -96 150 -155 247 -148 88 6 165 57 204 134 27 53 30 68 30
154 0 83 -4 102 -28 155 -32 69 -83 125 -146 162 -34 20 -61 26 -125 30 -74 4
-85 2 -126 -23z m242 -55 c50 -32 60 -57 38 -89 -56 -82 -74 -241 -39 -346 11
-32 17 -60 13 -63 -3 -3 -36 -7 -73 -9 -98 -6 -142 25 -212 149 -39 69 -42 80
-44 158 -3 107 14 150 81 198 47 34 51 35 124 31 58 -3 83 -10 112 -29z"/>
<path d="M3929 4271 c-52 -28 -107 -94 -115 -136 -3 -20 -4 -81 -2 -134 5 -93
7 -100 48 -169 49 -83 116 -147 169 -162 65 -18 134 -12 187 16 71 37 88 57
119 134 25 62 27 78 23 147 -10 130 -68 233 -166 291 -39 22 -60 27 -137 29
-74 3 -96 0 -126 -16z m237 -52 c19 -12 42 -32 50 -45 15 -21 14 -26 -5 -53
-35 -49 -52 -111 -55 -196 -3 -71 2 -103 28 -181 15 -46 -107 -58 -172 -17
-43 28 -90 82 -123 142 -26 47 -32 70 -36 141 -4 70 -2 92 15 128 19 42 77 94
117 105 41 12 146 -2 181 -24z"/>
<path d="M4970 3590 c0 -24 24 -76 48 -103 16 -17 12 -22 -49 -80 -77 -73
-130 -106 -219 -140 -111 -41 -186 -50 -292 -33 -160 26 -258 73 -330 156 -55
64 -99 69 -67 7 10 -17 25 -78 54 -211 8 -33 46 -100 86 -147 27 -32 63 -58
121 -87 81 -41 85 -42 184 -42 127 0 166 11 274 79 135 86 229 191 285 317 14
33 31 71 37 85 11 24 15 25 66 21 30 -3 79 1 108 7 48 11 54 15 54 38 0 24 -2
25 -42 19 -127 -18 -142 -17 -188 7 -34 17 -52 36 -71 73 -27 52 -59 71 -59
34z"/>
<path d="M5135 1570 c-4 -6 -3 -16 3 -22 6 -6 12 -6 17 2 4 6 3 16 -3 22 -6 6
-12 6 -17 -2z"/>
<path d="M5173 1555 c0 -8 4 -12 9 -9 4 3 8 9 8 15 0 5 -4 9 -8 9 -5 0 -9 -7
-9 -15z"/>
<path d="M4955 1200 c-3 -5 -4 -10 0 -10 3 0 1 -9 -5 -19 -7 -15 -7 -22 2 -27
7 -4 10 -3 5 1 -4 5 0 19 8 31 8 13 11 25 6 29 -5 3 -12 1 -16 -5z"/>
<path d="M4907 1047 c-3 -8 1 -14 8 -14 7 0 11 6 8 14 -3 7 -6 13 -8 13 -2 0
-5 -6 -8 -13z"/>
<path d="M5683 895 c0 -8 4 -12 9 -9 5 3 6 10 3 15 -9 13 -12 11 -12 -6z"/>
<path d="M4901 864 c0 -11 3 -14 6 -6 3 7 2 16 -1 19 -3 4 -6 -2 -5 -13z"/>
<path d="M5851 777 c-8 -10 -7 -14 2 -14 8 0 14 6 14 14 0 7 -1 13 -2 13 -2 0
-8 -6 -14 -13z"/>
<path d="M5778 718 c9 -9 9 -15 -1 -27 -10 -14 -10 -14 4 -4 9 7 20 9 25 5 5
-4 0 3 -10 16 -11 12 -22 22 -25 22 -3 0 0 -5 7 -12z"/>
<path d="M5526 682 c-3 -5 1 -9 9 -9 8 0 12 4 9 9 -3 4 -7 8 -9 8 -2 0 -6 -4
-9 -8z"/>
<path d="M5687 673 c3 -7 6 -13 8 -13 2 0 5 6 8 13 3 8 -1 14 -8 14 -7 0 -11
-6 -8 -14z"/>
<path d="M3921 1440 c6 -16 15 -33 20 -36 5 -3 7 -9 4 -14 -3 -4 2 -13 9 -19
20 -17 16 7 -7 39 -9 13 -17 30 -17 37 0 6 -4 14 -10 18 -5 3 -5 -7 1 -25z"/>
<path d="M3725 1304 c2 -33 10 -38 26 -17 12 14 12 16 0 8 -11 -6 -13 -4 -8 8
3 8 0 17 -6 20 -8 3 -12 -4 -12 -19z"/>
<path d="M3739 1253 c-13 -16 -12 -17 4 -4 16 13 21 21 13 21 -2 0 -10 -8 -17
-17z"/>
<path d="M3986 1252 c-3 -5 1 -9 9 -9 8 0 12 4 9 9 -3 4 -7 8 -9 8 -2 0 -6 -4
-9 -8z"/>
<path d="M4026 1137 c3 -10 9 -15 12 -12 3 3 0 11 -7 18 -10 9 -11 8 -5 -6z"/>
<path d="M4040 1045 c0 -2 6 -8 13 -14 10 -8 14 -7 14 2 0 8 -6 14 -14 14 -7
0 -13 -1 -13 -2z"/>
<path d="M4085 950 c8 -9 12 -19 9 -22 -3 -3 -1 -9 4 -12 9 -5 9 14 2 34 -1 3
-2 8 -2 11 1 3 -6 6 -14 6 -12 0 -12 -3 1 -17z"/>
<path d="M4094 842 c0 -10 6 -19 13 -19 8 0 9 6 2 19 -5 10 -11 18 -12 18 -2
0 -3 -8 -3 -18z"/>
<path d="M3330 831 c0 -6 4 -13 10 -16 6 -3 7 1 4 9 -7 18 -14 21 -14 7z"/>
<path d="M4073 805 c1 -11 -4 -20 -10 -20 -18 0 -17 -18 1 -21 25 -4 37 20 22
42 -14 19 -14 19 -13 -1z"/>
<path d="M3161 787 c-13 -21 -12 -21 5 -5 10 10 16 20 13 22 -3 3 -11 -5 -18
-17z"/>
<path d="M3124 784 c1 -8 4 -15 7 -16 2 -2 3 -1 2 1 -2 2 2 9 7 16 7 8 5 12
-4 12 -8 0 -13 -6 -12 -13z"/>
<path d="M3176 651 c-4 -5 -2 -12 3 -15 5 -4 12 -2 15 3 4 5 2 12 -3 15 -5 4
-12 2 -15 -3z"/>
</g>
</svg>
