<?xml version="1.0" standalone="no"?>
<!DOCTYPE svg PUBLIC "-//W3C//DTD SVG 20010904//EN"
 "http://www.w3.org/TR/2001/REC-SVG-20010904/DTD/svg10.dtd">
<svg version="1.0" xmlns="http://www.w3.org/2000/svg"
 width="920.000000pt" height="512.000000pt" viewBox="0 0 920.000000 512.000000"
 preserveAspectRatio="xMidYMid meet">

<g transform="translate(0.000000,512.000000) scale(0.100000,-0.100000)"
fill="#000000" stroke="none">
<path d="M4365 5110 c-587 -60 -1136 -312 -1539 -708 -120 -118 -199 -208
-287 -327 -353 -477 -531 -1082 -491 -1673 30 -456 172 -881 417 -1253 197
-297 482 -574 787 -762 902 -558 2045 -504 2895 135 126 94 344 306 446 433
234 291 393 610 487 980 60 238 74 354 74 625 0 250 -11 357 -60 574 -59 262
-201 598 -351 826 -406 617 -1042 1022 -1783 1135 -126 19 -469 27 -595 15z
m117 -566 c113 -35 216 -84 294 -138 54 -38 64 -42 64 -26 0 10 10 31 23 46
32 37 104 44 173 16 27 -11 61 -23 77 -26 87 -20 208 -75 307 -141 59 -40 162
-103 227 -140 159 -92 189 -113 324 -231 189 -167 268 -278 288 -405 12 -74 1
-167 -25 -206 -15 -23 -14 -26 4 -46 40 -45 56 -90 60 -181 8 -149 -30 -263
-121 -362 -93 -102 -172 -137 -341 -154 -95 -9 -215 -40 -244 -63 -7 -6 -42
-68 -78 -139 -128 -250 -245 -327 -414 -268 -30 10 -58 16 -62 12 -14 -14 -56
-181 -84 -329 l-28 -152 -256 -3 c-140 -2 -304 -1 -365 2 l-110 5 -7 129 c-4
71 -12 158 -17 195 -8 60 -13 70 -59 118 -32 32 -57 70 -69 102 -15 44 -21 51
-44 51 -48 0 -151 60 -209 123 -30 33 -104 112 -165 177 -140 148 -180 213
-180 291 0 41 5 63 18 77 15 16 16 24 7 39 -10 15 -25 18 -83 18 -63 0 -80 5
-135 35 -37 19 -84 56 -111 87 l-48 53 -84 11 c-107 13 -148 24 -224 60 -123
58 -181 133 -209 271 -27 131 -17 203 45 319 71 133 177 216 288 226 123 11
199 -36 274 -172 27 -49 60 -102 73 -118 l23 -27 6 37 c3 21 9 56 13 78 6 34
3 47 -25 93 -82 138 -37 324 99 413 90 58 172 81 309 86 90 4 129 2 174 -12
67 -19 222 -96 313 -155 34 -22 62 -39 62 -36 0 2 -17 39 -37 82 -49 103 -56
183 -21 233 53 77 159 92 310 45z m-164 -2951 c-15 -2 -42 -2 -60 0 -18 2 -6
4 27 4 33 0 48 -2 33 -4z m607 -1 c90 -12 31 -22 -172 -28 -150 -5 -213 -3
-258 7 l-60 14 55 6 c76 8 374 9 435 1z m35 -52 c-8 -5 -31 -10 -50 -10 -26 0
-31 -3 -20 -10 8 -5 37 -10 65 -10 29 0 45 -4 40 -9 -16 -14 -489 -35 -511
-22 -15 8 -6 10 44 11 34 0 62 4 62 9 0 5 10 12 23 14 12 2 -16 5 -63 7 l-85
3 70 12 c85 15 447 19 425 5z m-532 -35 c-2 -3 -17 -6 -31 -7 -15 -1 -27 -5
-27 -9 0 -3 -34 -7 -75 -8 -43 -1 -75 2 -75 8 0 5 6 12 13 14 16 7 202 9 195
2z m740 -22 c-4 -23 -55 -34 -138 -31 -123 5 -46 43 93 47 40 1 48 -2 45 -16z
m-533 -34 c4 -6 4 -13 1 -17 -4 -3 -104 -8 -224 -10 -196 -4 -215 -3 -204 11
18 21 40 24 244 26 116 0 179 -3 183 -10z m448 -36 c-7 -2 -19 -2 -25 0 -7 3
-2 5 12 5 14 0 19 -2 13 -5z m-165 -20 c-10 -2 -28 -2 -40 0 -13 2 -5 4 17 4
22 1 32 -1 23 -4z m-428 -13 c-96 -3 -184 -3 -195 1 -11 4 68 7 175 7 l195 -2
-175 -6z m253 3 c-13 -2 -35 -2 -50 0 -16 2 -5 4 22 4 28 0 40 -2 28 -4z m54
1 c-3 -3 -12 -4 -19 -1 -8 3 -5 6 6 6 11 1 17 -2 13 -5z m-222 -24 c-20 -10
80 -8 323 6 73 5 102 3 102 -5 0 -7 10 -9 23 -7 12 3 50 8 85 11 62 6 63 6 60
-17 -2 -19 -12 -24 -52 -31 -27 -4 -74 -7 -104 -5 -55 3 -55 3 -37 22 19 19
19 19 -45 13 -36 -4 -139 -10 -230 -14 -105 -5 -147 -10 -116 -13 50 -5 72
-24 39 -34 -16 -4 -340 -10 -400 -7 -13 0 -23 6 -23 11 0 20 50 29 165 31 80
1 113 5 106 12 -5 5 -47 9 -95 8 -53 -1 -86 2 -86 8 0 6 35 11 83 13 213 8
222 7 202 -2z m45 -119 l55 -9 -65 -2 c-59 -2 -62 -3 -30 -11 36 -8 398 -4
528 7 60 5 72 4 72 -9 0 -27 -26 -37 -108 -44 -88 -6 -121 0 -104 20 8 9 -22
10 -146 4 -86 -5 -168 -11 -182 -14 -22 -5 -23 -6 -7 -12 17 -6 17 -8 3 -20
-12 -10 -70 -15 -214 -18 -204 -4 -238 0 -213 31 11 13 37 16 140 16 87 0 121
3 111 10 -9 6 -49 8 -103 4 -78 -6 -87 -5 -81 10 5 14 24 16 127 16 66 0 118
3 114 6 -3 3 -61 6 -129 6 -68 -1 -117 2 -110 4 6 3 9 10 6 16 -7 11 243 3
336 -11z m217 2 c-20 -2 -52 -2 -70 0 -17 2 0 4 38 4 39 0 53 -2 32 -4z m-130
-9 c-3 -3 -12 -4 -19 -1 -8 3 -5 6 6 6 11 1 17 -2 13 -5z m-147 -126 c0 -8 49
-10 186 -5 102 3 184 4 182 3 -5 -6 -138 -16 -226 -17 -54 -1 -88 -7 -100 -16
-15 -13 -5 -13 78 -8 52 4 165 9 250 11 143 3 185 7 233 20 28 8 22 -35 -7
-46 -66 -25 -222 -24 -185 1 10 7 -8 9 -56 5 -38 -3 -122 -9 -185 -13 -63 -4
-107 -9 -97 -11 9 -2 17 -8 17 -13 0 -22 -62 -29 -246 -29 -169 0 -195 2 -201
16 -10 27 17 34 152 36 l130 2 -115 5 c-151 8 -130 24 40 32 l125 5 -131 2
c-109 2 -131 5 -131 17 0 13 23 15 144 15 101 0 143 -3 143 -12z m12 -147 c-3
-12 21 -13 150 -7 84 4 171 9 193 11 37 5 38 4 10 -5 -16 -5 -49 -11 -72 -12
-24 0 -43 -4 -43 -8 0 -12 272 -4 319 9 23 7 45 10 48 7 14 -13 -10 -36 -47
-46 -55 -15 -155 -18 -153 -5 1 7 -49 6 -145 -2 -81 -6 -160 -12 -177 -13 -23
-1 -26 -3 -12 -9 17 -6 16 -9 -10 -20 -34 -17 -341 -28 -393 -14 -20 5 -36 17
-38 26 -3 15 10 17 125 19 l128 1 -92 6 c-83 6 -114 13 -102 25 3 3 26 6 52 7
45 3 56 13 16 15 -10 1 -28 2 -39 3 -11 0 -20 5 -20 11 0 9 93 15 235 15 55 0
69 -3 67 -14z m460 7 c-14 -14 -44 -20 -36 -7 3 5 9 7 14 4 5 -3 11 -1 15 5 3
5 9 10 13 10 3 0 1 -5 -6 -12z m25 -135 c-9 -2 -15 -8 -12 -13 3 -4 -3 -7 -12
-5 -10 1 -22 0 -28 -4 -18 -10 -32 -9 -32 3 0 7 14 13 31 14 16 2 32 5 35 7 2
3 11 4 20 4 13 -1 12 -2 -2 -6z m-481 -19 c-7 -18 35 -17 299 3 44 3 77 3 74
-1 -3 -3 -17 -7 -32 -8 -14 -1 -24 -5 -22 -9 9 -13 171 -9 225 6 72 19 80 18
52 -5 -38 -32 -179 -60 -192 -39 -3 5 -60 4 -125 -2 -202 -17 -232 -21 -211
-29 43 -15 -75 -30 -236 -30 -159 0 -209 9 -212 35 -1 6 56 12 144 15 l145 6
-113 2 c-86 1 -113 5 -110 15 3 6 18 14 34 17 l29 6 -33 7 c-19 4 -31 11 -27
17 4 6 68 10 162 10 140 0 155 -2 149 -16z m30 -199 c33 -21 26 -57 -12 -67
-35 -9 -333 7 -345 19 -5 5 -6 18 -3 30 5 17 16 23 48 28 123 16 280 11 312
-10z m-97 -125 c92 0 128 -11 101 -31 -10 -7 -62 -8 -154 -4 -159 6 -186 11
-186 33 0 13 12 14 77 8 42 -3 115 -6 162 -6z m56 -179 c42 -6 46 -8 27 -15
-25 -8 -165 2 -197 15 -25 10 99 10 170 0z"/>
<path d="M4466 4400 c4 -19 10 -42 15 -50 11 -18 1 34 -13 65 -5 13 -6 9 -2
-15z"/>
<path d="M5129 4373 c11 -16 34 -44 51 -63 17 -19 11 -7 -15 28 -25 34 -48 62
-51 62 -3 0 4 -12 15 -27z"/>
<path d="M4895 4310 c10 -11 20 -20 23 -20 3 0 -3 9 -13 20 -10 11 -20 20 -23
20 -3 0 3 -9 13 -20z"/>
<path d="M4550 4245 c0 -4 31 -55 69 -113 77 -119 97 -176 80 -236 -15 -55
-73 -114 -127 -129 l-45 -14 57 -38 c53 -35 63 -38 121 -36 83 3 142 -25 221
-104 74 -75 174 -223 203 -299 58 -156 1 -263 -166 -311 -64 -19 -79 -27 -81
-44 -5 -30 52 -220 84 -284 36 -70 42 -150 17 -208 l-20 -44 71 3 c45 2 87 -2
115 -11 l43 -15 24 56 c14 32 39 90 57 130 59 134 126 191 287 243 75 25 121
33 217 38 112 6 123 9 142 31 39 46 54 84 59 152 5 67 5 68 31 63 22 -5 23 -4
6 4 -34 16 -62 12 -101 -14 -48 -33 -95 -45 -175 -45 -79 0 -179 28 -237 67
-104 71 -139 190 -88 300 69 147 218 209 406 169 41 -9 88 -20 104 -23 l29 -6
-24 43 c-27 48 -188 214 -264 271 -27 20 -78 53 -111 72 l-61 34 4 -41 c6 -50
-25 -102 -77 -129 -69 -36 -223 -6 -385 76 -75 37 -117 70 -225 172 -155 148
-260 236 -260 220z"/>
<path d="M3553 4040 c-7 -10 -9 -21 -5 -24 4 -2 12 7 19 20 13 29 3 32 -14 4z"/>
<path d="M3936 4004 c4 -16 12 -47 18 -68 l11 -39 27 40 26 39 -22 14 c-11 7
-31 20 -44 28 -23 15 -23 14 -16 -14z"/>
<path d="M2906 3688 c-44 -76 -56 -115 -56 -188 l0 -71 36 -15 c20 -9 76 -21
123 -29 142 -21 249 -72 302 -144 21 -29 22 -29 57 -14 47 20 112 11 168 -22
73 -43 231 -244 261 -331 18 -53 7 -108 -27 -139 -20 -18 -19 -19 92 -134 152
-156 146 -153 199 -107 60 51 168 83 327 97 177 15 200 35 147 124 -18 31 -33
44 -56 49 -59 11 -96 6 -145 -21 -43 -25 -60 -28 -134 -28 -263 0 -380 195
-210 349 92 83 178 98 389 67 160 -24 156 -25 197 45 16 28 24 54 22 75 -3 29
-7 33 -55 45 -79 20 -165 68 -217 119 -25 26 -46 50 -46 55 0 5 -7 16 -16 25
-15 15 -18 13 -36 -27 -58 -129 -178 -162 -330 -91 -78 37 -162 111 -179 158
-10 26 -21 35 -53 45 -23 6 -51 18 -63 26 -23 14 -23 14 -23 -46 0 -73 -22
-121 -78 -172 -51 -46 -100 -62 -176 -56 -102 9 -150 41 -243 167 -71 96 -114
169 -117 200 -5 42 -32 37 -60 -11z"/>
<path d="M4425 2367 c-49 -5 -92 -10 -93 -12 -2 -2 -1 -13 3 -24 6 -19 12 -20
60 -15 29 4 67 2 83 -4 29 -10 30 -9 37 25 3 19 5 36 3 37 -2 1 -43 -2 -93 -7z"/>
<path d="M4929 2353 c-13 -16 -12 -17 4 -4 9 7 17 15 17 17 0 8 -8 3 -21 -13z"/>
<path d="M4728 2283 c6 -2 18 -2 25 0 6 3 1 5 -13 5 -14 0 -19 -2 -12 -5z"/>
<path d="M4772 2223 c-9 -67 -8 -94 3 -57 4 10 17 43 31 72 l24 52 -24 0 c-22
0 -25 -6 -34 -67z"/>
<path d="M4988 2113 c7 -3 16 -2 19 1 4 3 -2 6 -13 5 -11 0 -14 -3 -6 -6z"/>
<path d="M4370 938 c0 -7 91 1 100 9 2 2 -19 2 -48 1 -29 -2 -52 -6 -52 -10z"/>
<path d="M4767 944 c-4 -4 -44 -6 -89 -6 -53 1 -76 -2 -63 -7 l20 -9 -20 -4
c-11 -3 -4 -4 15 -2 19 2 64 4 100 4 42 0 60 3 51 9 -11 7 -10 10 5 14 14 3
15 5 3 6 -9 0 -19 -2 -22 -5z"/>
<path d="M4378 793 c7 -3 16 -2 19 1 4 3 -2 6 -13 5 -11 0 -14 -3 -6 -6z"/>
<path d="M4483 793 c9 -2 23 -2 30 0 6 3 -1 5 -18 5 -16 0 -22 -2 -12 -5z"/>
<path d="M4660 791 c-76 -7 -54 -17 40 -18 36 -1 55 1 42 4 -12 2 -20 9 -17
14 4 5 5 8 3 7 -2 -1 -32 -4 -68 -7z"/>
</g>
</svg>
